<svg width="185" height="64" viewBox="0 0 185 64" fill="none" xmlns="http://www.w3.org/2000/svg">
<path d="M74.3468 19.09C74.2771 18.8721 74.1682 18.5278 74.02 18.0572C73.8806 17.5866 73.7193 17.055 73.5363 16.4624C73.3533 15.8698 73.1616 15.251 72.9612 14.6061C72.7607 13.9525 72.569 13.3338 72.386 12.7499C72.203 12.1573 72.033 11.6256 71.8762 11.155C71.728 10.6844 71.6103 10.3358 71.5232 10.1093C71.6365 10.1267 71.7454 10.1441 71.85 10.1615C71.9546 10.1703 72.0635 10.1746 72.1768 10.1746C72.2901 10.1746 72.399 10.1703 72.5036 10.1615C72.6082 10.1441 72.7171 10.1267 72.8304 10.1093C72.996 10.7716 73.1572 11.3947 73.3141 11.9786C73.471 12.5538 73.6366 13.142 73.8109 13.7434C73.9939 14.336 74.1856 14.9634 74.386 15.6258C74.5952 16.2794 74.8305 17.0202 75.0919 17.8481H75.1181C75.1965 17.6128 75.3055 17.2903 75.4449 16.8807C75.5843 16.4624 75.7368 16.0049 75.9024 15.5081C76.068 15.0027 76.2423 14.4798 76.4253 13.9394C76.6083 13.3991 76.7783 12.8849 76.9351 12.3969C77.092 11.9002 77.2315 11.4513 77.3535 11.0505C77.4755 10.6409 77.5626 10.3271 77.6149 10.1093C77.7892 10.1528 77.933 10.1746 78.0463 10.1746C78.1596 10.1746 78.3034 10.1528 78.4777 10.1093C78.5387 10.3446 78.6302 10.667 78.7522 11.0766C78.8829 11.4862 79.0267 11.9437 79.1836 12.4492C79.3405 12.946 79.506 13.4645 79.6803 14.0048C79.8633 14.5451 80.0376 15.0637 80.2032 15.5604C80.3688 16.0572 80.517 16.506 80.6477 16.9069C80.7871 17.3078 80.8961 17.6215 80.9745 17.8481H81.0006C81.0617 17.6564 81.1532 17.36 81.2752 16.9592C81.4059 16.5496 81.5497 16.092 81.7065 15.5866C81.8721 15.0724 82.0377 14.5364 82.2033 13.9787C82.3776 13.4122 82.5388 12.8762 82.687 12.3708C82.8438 11.8566 82.9789 11.3991 83.0922 10.9982C83.2142 10.5973 83.297 10.301 83.3406 10.1093C83.419 10.1267 83.4931 10.1441 83.5628 10.1615C83.6413 10.1703 83.7197 10.1746 83.7981 10.1746C83.8766 10.1746 83.9506 10.1703 84.0204 10.1615C84.0988 10.1441 84.1772 10.1267 84.2557 10.1093C84.1685 10.3097 84.0421 10.6409 83.8766 11.1028C83.711 11.5646 83.5236 12.0919 83.3145 12.6845C83.114 13.2771 82.9005 13.9046 82.6739 14.5669C82.456 15.2293 82.2425 15.8611 82.0334 16.4624C81.8329 17.055 81.6499 17.591 81.4843 18.0703C81.3275 18.5409 81.2098 18.8808 81.1314 19.09C80.9919 19.0725 80.8438 19.0638 80.6869 19.0638C80.53 19.0638 80.3819 19.0725 80.2425 19.09C79.8503 17.8786 79.4625 16.6629 79.079 15.4428C78.6956 14.214 78.2816 12.946 77.8371 11.6387H77.811C77.7413 11.8392 77.6454 12.1093 77.5234 12.4492C77.4101 12.7804 77.2794 13.1551 77.1312 13.5734C76.9918 13.9917 76.8393 14.4406 76.6737 14.9199C76.5081 15.3992 76.3425 15.8829 76.177 16.3709C76.0114 16.8589 75.8501 17.3383 75.6933 17.8089C75.5364 18.2795 75.3926 18.7065 75.2619 19.09C75.1224 19.0725 74.9699 19.0638 74.8044 19.0638C74.6388 19.0638 74.4863 19.0725 74.3468 19.09Z" fill="#F1F1F1"/>
<path d="M85.7066 13.495C85.7066 12.9198 85.6936 12.3577 85.6674 11.8087C85.65 11.2509 85.6282 10.6844 85.6021 10.1093C85.7153 10.1267 85.8243 10.1441 85.9289 10.1615C86.0334 10.1703 86.138 10.1746 86.2426 10.1746C86.3472 10.1746 86.4518 10.1703 86.5563 10.1615C86.6609 10.1441 86.7698 10.1267 86.8831 10.1093C86.857 10.6844 86.8308 11.2509 86.8047 11.8087C86.7873 12.3577 86.7786 12.9198 86.7786 13.495V15.7434C86.7786 16.3186 86.7873 16.8851 86.8047 17.4428C86.8308 18.0006 86.857 18.5496 86.8831 19.09C86.6827 19.0725 86.4692 19.0638 86.2426 19.0638C86.016 19.0638 85.8025 19.0725 85.6021 19.09C85.6282 18.5496 85.65 18.0006 85.6674 17.4428C85.6936 16.8851 85.7066 16.3186 85.7066 15.7434V13.495Z" fill="#F1F1F1"/>
<path d="M89.0573 17.3906C89.1271 17.5474 89.2186 17.7087 89.3319 17.8742C89.4539 18.0311 89.5977 18.1749 89.7632 18.3056C89.9375 18.4364 90.138 18.5453 90.3646 18.6324C90.5912 18.7109 90.8439 18.7501 91.1228 18.7501C91.4104 18.7501 91.6675 18.7022 91.894 18.6063C92.1293 18.5017 92.3254 18.3666 92.4823 18.201C92.6479 18.0268 92.7742 17.8263 92.8614 17.5997C92.9485 17.3644 92.9921 17.116 92.9921 16.8546C92.9921 16.4537 92.8875 16.1356 92.6784 15.9003C92.4779 15.665 92.2252 15.4689 91.9202 15.3121C91.6152 15.1552 91.284 15.0114 90.9267 14.8807C90.5781 14.75 90.2513 14.5887 89.9463 14.397C89.6412 14.1966 89.3841 13.9438 89.175 13.6388C88.9745 13.3338 88.8743 12.9242 88.8743 12.41C88.8743 12.044 88.9397 11.7128 89.0704 11.4165C89.2011 11.1115 89.3885 10.85 89.6325 10.6322C89.8853 10.4143 90.1859 10.2444 90.5345 10.1223C90.8831 10.0003 91.2753 9.93933 91.711 9.93933C92.1293 9.93933 92.491 9.99162 92.796 10.0962C93.101 10.1921 93.3843 10.3446 93.6457 10.5537C93.5673 10.7019 93.5019 10.8588 93.4496 11.0243C93.3974 11.1899 93.3451 11.3991 93.2928 11.6518H93.1359C93.0923 11.5298 93.0313 11.3991 92.9529 11.2596C92.8832 11.1115 92.783 10.9764 92.6522 10.8544C92.5302 10.7324 92.3821 10.6322 92.2078 10.5537C92.0335 10.4666 91.8243 10.423 91.5803 10.423C91.3363 10.423 91.1097 10.4622 90.9005 10.5407C90.7001 10.6191 90.5214 10.7324 90.3646 10.8805C90.2164 11.02 90.0988 11.1899 90.0116 11.3904C89.9332 11.5908 89.894 11.8087 89.894 12.044C89.894 12.4536 89.9942 12.776 90.1946 13.0113C90.4038 13.2466 90.6609 13.4471 90.9659 13.6127C91.2709 13.7695 91.5977 13.9133 91.9463 14.044C92.3036 14.1661 92.6348 14.3186 92.9398 14.5016C93.2448 14.6846 93.4976 14.9199 93.698 15.2075C93.9072 15.4951 94.0118 15.8785 94.0118 16.3578C94.0118 16.7587 93.9377 17.1378 93.7895 17.4951C93.6501 17.8525 93.4409 18.1662 93.1621 18.4364C92.8919 18.6978 92.5564 18.9026 92.1555 19.0508C91.7633 19.1902 91.3145 19.2599 90.809 19.2599C90.2687 19.2599 89.8286 19.1902 89.4887 19.0508C89.1576 18.9026 88.8787 18.737 88.6521 18.554C88.7305 18.3536 88.7828 18.1749 88.809 18.018C88.8438 17.8525 88.8743 17.6433 88.9005 17.3906H89.0573Z" fill="#F1F1F1"/>
<path d="M95.8809 13.4819C95.8809 12.9067 95.8679 12.3403 95.8417 11.7825C95.8243 11.2248 95.8025 10.667 95.7764 10.1093C96.1685 10.1267 96.5564 10.1441 96.9398 10.1615C97.332 10.1703 97.7241 10.1746 98.1163 10.1746C98.5085 10.1746 98.8963 10.1703 99.2798 10.1615C99.6632 10.1441 100.051 10.1267 100.443 10.1093C100.417 10.24 100.404 10.3707 100.404 10.5014C100.404 10.6321 100.417 10.7629 100.443 10.8936C100.164 10.8762 99.9072 10.8587 99.6719 10.8413C99.4453 10.8239 99.2013 10.8064 98.9399 10.789C98.6871 10.7716 98.4083 10.7585 98.1032 10.7498C97.7982 10.7324 97.4322 10.7237 97.0052 10.7237C96.9965 11.0025 96.9834 11.2683 96.966 11.5211C96.9572 11.7738 96.9529 12.0614 96.9529 12.3838C96.9529 12.7237 96.9529 13.0549 96.9529 13.3773C96.9616 13.6998 96.966 13.9438 96.966 14.1094C97.3494 14.1094 97.6936 14.105 97.9987 14.0963C98.3037 14.0876 98.5826 14.0789 98.8353 14.0702C99.088 14.0527 99.319 14.0397 99.5281 14.031C99.746 14.0135 99.9508 13.9961 100.143 13.9787C100.116 14.1094 100.103 14.2445 100.103 14.3839C100.103 14.5146 100.116 14.6454 100.143 14.7761C99.9159 14.7499 99.6501 14.7281 99.3451 14.7107C99.0488 14.6933 98.7482 14.6846 98.4431 14.6846C98.1468 14.6759 97.8636 14.6715 97.5934 14.6715C97.332 14.6628 97.1228 14.6584 96.966 14.6584C96.966 14.7369 96.9616 14.824 96.9529 14.9199C96.9529 15.007 96.9529 15.1203 96.9529 15.2598V16.5539C96.9529 17.0507 96.9529 17.4603 96.9529 17.7827C96.9616 18.1052 96.9703 18.3492 96.979 18.5148C97.2666 18.5148 97.5716 18.5148 97.8941 18.5148C98.2253 18.5148 98.5477 18.5104 98.8614 18.5017C99.1839 18.4843 99.4846 18.4668 99.7634 18.4494C100.051 18.4233 100.299 18.3884 100.509 18.3448C100.491 18.4058 100.478 18.4756 100.469 18.554C100.469 18.6237 100.469 18.6891 100.469 18.7501C100.469 18.8895 100.482 19.0028 100.509 19.09C100.116 19.0725 99.7242 19.0638 99.332 19.0638C98.9486 19.0638 98.5564 19.0638 98.1555 19.0638C97.7547 19.0638 97.3581 19.0638 96.966 19.0638C96.5738 19.0638 96.1773 19.0725 95.7764 19.09C95.8025 18.5322 95.8243 17.9788 95.8417 17.4298C95.8679 16.872 95.8809 16.3055 95.8809 15.7304V13.4819Z" fill="#F1F1F1"/>
<path d="M107.128 15.9395C107.128 16.384 107.136 16.8241 107.154 17.2598C107.171 17.6956 107.189 18.1357 107.206 18.5801C107.372 18.5976 107.568 18.615 107.794 18.6324C108.021 18.6411 108.252 18.6455 108.487 18.6455C108.766 18.6455 109.032 18.5976 109.285 18.5017C109.546 18.4058 109.773 18.2664 109.964 18.0834C110.156 17.8917 110.309 17.6607 110.422 17.3905C110.535 17.1117 110.592 16.7979 110.592 16.4493C110.592 16.0746 110.522 15.7696 110.383 15.5343C110.252 15.2903 110.06 15.1029 109.808 14.9722C109.555 14.8327 109.25 14.7369 108.892 14.6846C108.544 14.6323 108.152 14.6061 107.716 14.6061H107.128V15.9395ZM107.834 14.1225C108.139 14.1225 108.439 14.092 108.736 14.031C109.041 13.97 109.311 13.8697 109.546 13.7303C109.781 13.5821 109.969 13.3904 110.108 13.1551C110.256 12.9111 110.33 12.6061 110.33 12.24C110.33 11.8827 110.265 11.5995 110.134 11.3903C110.004 11.1725 109.838 11.0069 109.638 10.8936C109.437 10.7716 109.211 10.6932 108.958 10.6583C108.705 10.6147 108.452 10.5929 108.2 10.5929C107.973 10.5929 107.781 10.6016 107.624 10.6191C107.468 10.6278 107.328 10.6409 107.206 10.6583C107.189 11.0766 107.171 11.4906 107.154 11.9002C107.136 12.3098 107.128 12.7237 107.128 13.142V14.1225H107.834ZM106.056 13.4819C106.056 12.9067 106.043 12.3403 106.017 11.7825C105.999 11.2248 105.977 10.667 105.951 10.1093C106.178 10.1267 106.409 10.1441 106.644 10.1615C106.879 10.1703 107.11 10.1746 107.337 10.1746C107.563 10.1746 107.794 10.1659 108.03 10.1485C108.265 10.1223 108.496 10.1093 108.723 10.1093C109.097 10.1093 109.45 10.1398 109.781 10.2008C110.113 10.253 110.404 10.3533 110.657 10.5014C110.91 10.6409 111.11 10.8326 111.259 11.0766C111.407 11.3206 111.481 11.6256 111.481 11.9917C111.481 12.6366 111.276 13.142 110.866 13.5081C110.465 13.8741 109.938 14.1312 109.285 14.2793V14.3055C110.06 14.3403 110.67 14.5277 111.115 14.8676C111.568 15.2075 111.795 15.7521 111.795 16.5016C111.795 16.9897 111.694 17.3993 111.494 17.7304C111.293 18.0616 111.032 18.3318 110.709 18.5409C110.387 18.7414 110.03 18.8852 109.638 18.9723C109.254 19.0507 108.871 19.09 108.487 19.09C108.278 19.09 108.065 19.0856 107.847 19.0769C107.638 19.0682 107.428 19.0638 107.219 19.0638C107.01 19.0638 106.797 19.0638 106.579 19.0638C106.369 19.0638 106.16 19.0725 105.951 19.09C105.977 18.5322 105.999 17.9788 106.017 17.4298C106.043 16.872 106.056 16.3055 106.056 15.7304V13.4819Z" fill="#F1F1F1"/>
<path d="M114.047 13.495C114.047 12.9198 114.034 12.3577 114.008 11.8087C113.99 11.2509 113.969 10.6844 113.942 10.1093C114.195 10.1267 114.443 10.1441 114.688 10.1615C114.932 10.1703 115.18 10.1746 115.433 10.1746C115.685 10.1746 115.934 10.1659 116.178 10.1485C116.422 10.1223 116.67 10.1093 116.923 10.1093C117.289 10.1093 117.637 10.1441 117.969 10.2138C118.3 10.2836 118.587 10.4012 118.831 10.5668C119.084 10.7237 119.28 10.9328 119.42 11.1943C119.568 11.4557 119.642 11.7825 119.642 12.1747C119.642 12.593 119.546 12.9547 119.354 13.2597C119.171 13.556 118.945 13.8044 118.675 14.0048C118.404 14.1965 118.112 14.349 117.799 14.4623C117.494 14.5669 117.215 14.6366 116.962 14.6715C117.067 14.8022 117.21 14.9852 117.393 15.2205C117.576 15.4558 117.782 15.7173 118.008 16.0049C118.235 16.2838 118.47 16.5801 118.714 16.8938C118.958 17.1988 119.193 17.4951 119.42 17.7827C119.646 18.0616 119.86 18.3187 120.06 18.554C120.261 18.7893 120.422 18.9679 120.544 19.09C120.413 19.0725 120.282 19.0638 120.152 19.0638C120.021 19.0638 119.89 19.0638 119.76 19.0638C119.638 19.0638 119.511 19.0638 119.38 19.0638C119.25 19.0638 119.123 19.0725 119.001 19.09C118.871 18.9069 118.67 18.6324 118.4 18.2664C118.139 17.9004 117.847 17.5082 117.524 17.0899C117.202 16.6716 116.871 16.2576 116.531 15.848C116.2 15.4297 115.895 15.0767 115.616 14.7892H115.119V15.7434C115.119 16.3186 115.128 16.8851 115.145 17.4428C115.171 18.0006 115.197 18.5496 115.223 19.09C115.023 19.0725 114.81 19.0638 114.583 19.0638C114.356 19.0638 114.143 19.0725 113.942 19.09C113.969 18.5496 113.99 18.0006 114.008 17.4428C114.034 16.8851 114.047 16.3186 114.047 15.7434V13.495ZM115.119 14.2401C115.241 14.2663 115.372 14.2837 115.511 14.2924C115.659 14.3011 115.82 14.3055 115.995 14.3055C116.265 14.3055 116.544 14.275 116.831 14.214C117.128 14.153 117.398 14.0484 117.642 13.9002C117.886 13.7434 118.086 13.5386 118.243 13.2858C118.409 13.0244 118.492 12.6976 118.492 12.3054C118.492 11.9655 118.426 11.6866 118.296 11.4688C118.174 11.2422 118.012 11.0635 117.812 10.9328C117.611 10.8021 117.393 10.7149 117.158 10.6714C116.923 10.6191 116.692 10.5929 116.465 10.5929C116.16 10.5929 115.908 10.6016 115.707 10.6191C115.507 10.6278 115.337 10.6409 115.197 10.6583C115.18 11.1376 115.162 11.6126 115.145 12.0832C115.128 12.5538 115.119 13.0244 115.119 13.495V14.2401Z" fill="#F1F1F1"/>
<path d="M122.038 13.495C122.038 12.9198 122.025 12.3577 121.999 11.8087C121.982 11.2509 121.96 10.6844 121.934 10.1093C122.047 10.1267 122.156 10.1441 122.261 10.1615C122.365 10.1703 122.47 10.1746 122.574 10.1746C122.679 10.1746 122.784 10.1703 122.888 10.1615C122.993 10.1441 123.102 10.1267 123.215 10.1093C123.189 10.6844 123.163 11.2509 123.136 11.8087C123.119 12.3577 123.11 12.9198 123.11 13.495V15.7434C123.11 16.3186 123.119 16.8851 123.136 17.4428C123.163 18.0006 123.189 18.5496 123.215 19.09C123.014 19.0725 122.801 19.0638 122.574 19.0638C122.348 19.0638 122.134 19.0725 121.934 19.09C121.96 18.5496 121.982 18.0006 121.999 17.4428C122.025 16.8851 122.038 16.3186 122.038 15.7434V13.495Z" fill="#F1F1F1"/>
<path d="M125.677 13.495C125.677 12.9198 125.664 12.3577 125.638 11.8087C125.62 11.2509 125.598 10.6844 125.572 10.1093C125.903 10.1267 126.23 10.1441 126.553 10.1615C126.884 10.1703 127.215 10.1746 127.546 10.1746C127.877 10.1746 128.204 10.1659 128.527 10.1485C128.858 10.1223 129.189 10.1093 129.52 10.1093C130.287 10.1093 130.941 10.2095 131.481 10.4099C132.03 10.6104 132.479 10.898 132.827 11.2727C133.176 11.6387 133.429 12.0919 133.586 12.6322C133.751 13.1638 133.834 13.7652 133.834 14.4362C133.834 15.3077 133.681 16.0441 133.376 16.6454C133.08 17.238 132.697 17.7174 132.226 18.0834C131.764 18.4494 131.25 18.7109 130.684 18.8677C130.126 19.0159 129.59 19.09 129.076 19.09C128.779 19.09 128.487 19.0856 128.2 19.0769C127.912 19.0682 127.62 19.0638 127.324 19.0638C127.028 19.0638 126.736 19.0638 126.448 19.0638C126.161 19.0638 125.869 19.0725 125.572 19.09C125.598 18.5496 125.62 18.0006 125.638 17.4428C125.664 16.8851 125.677 16.3186 125.677 15.7434V13.495ZM126.749 15.7434C126.749 16.6846 126.775 17.6084 126.827 18.5148C127.01 18.5583 127.259 18.5932 127.572 18.6193C127.886 18.6368 128.209 18.6455 128.54 18.6455C129.019 18.6455 129.498 18.5888 129.978 18.4756C130.457 18.3623 130.884 18.1487 131.259 17.835C131.642 17.5213 131.952 17.0942 132.187 16.5539C132.431 16.0049 132.553 15.299 132.553 14.4362C132.553 13.678 132.457 13.0549 132.265 12.5669C132.082 12.0788 131.825 11.6954 131.494 11.4165C131.172 11.1289 130.784 10.9328 130.331 10.8282C129.877 10.7149 129.381 10.6583 128.84 10.6583C128.448 10.6583 128.082 10.6714 127.742 10.6975C127.402 10.7237 127.097 10.7542 126.827 10.789C126.801 11.2073 126.779 11.6474 126.762 12.1093C126.753 12.5625 126.749 13.0244 126.749 13.495V15.7434Z" fill="#F1F1F1"/>
<path d="M143.342 11.7041C143.211 11.5472 143.045 11.3904 142.845 11.2335C142.653 11.0766 142.435 10.9415 142.191 10.8283C141.956 10.7062 141.69 10.6104 141.394 10.5407C141.106 10.4622 140.797 10.423 140.466 10.423C139.925 10.423 139.42 10.5058 138.949 10.6714C138.487 10.837 138.082 11.0941 137.734 11.4427C137.394 11.7825 137.124 12.2183 136.923 12.7499C136.731 13.2728 136.636 13.8959 136.636 14.6192C136.636 15.2554 136.723 15.8306 136.897 16.3448C137.071 16.859 137.324 17.2947 137.655 17.652C137.995 18.0006 138.405 18.2708 138.884 18.4625C139.372 18.6542 139.921 18.7501 140.531 18.7501C140.714 18.7501 140.906 18.7414 141.106 18.7239C141.307 18.7065 141.498 18.6804 141.682 18.6455C141.873 18.6107 142.048 18.5671 142.204 18.5148C142.37 18.4625 142.509 18.4015 142.623 18.3318C142.631 18.0703 142.636 17.8089 142.636 17.5474C142.645 17.286 142.649 17.0202 142.649 16.75C142.649 16.445 142.64 16.14 142.623 15.835C142.614 15.5299 142.601 15.238 142.583 14.9591C142.801 15.0027 143.011 15.0245 143.211 15.0245C143.307 15.0245 143.403 15.0201 143.499 15.0114C143.594 15.0027 143.686 14.9853 143.773 14.9591C143.756 15.1596 143.743 15.4776 143.734 15.9134C143.725 16.3404 143.721 16.9069 143.721 17.6128C143.721 17.7871 143.721 17.9657 143.721 18.1488C143.729 18.3231 143.734 18.4974 143.734 18.6717C143.551 18.7414 143.32 18.8154 143.041 18.8939C142.771 18.9636 142.479 19.0202 142.165 19.0638C141.86 19.1161 141.551 19.1597 141.237 19.1945C140.932 19.2381 140.653 19.2599 140.4 19.2599C139.625 19.2599 138.923 19.1684 138.296 18.9854C137.677 18.7937 137.15 18.5017 136.714 18.1095C136.278 17.7174 135.943 17.2293 135.707 16.6454C135.472 16.0615 135.354 15.3861 135.354 14.6192C135.354 13.8785 135.476 13.2205 135.721 12.6453C135.965 12.0614 136.309 11.569 136.753 11.1681C137.198 10.7672 137.734 10.4622 138.361 10.2531C138.997 10.0439 139.699 9.93933 140.466 9.93933C140.91 9.93933 141.302 9.96548 141.642 10.0178C141.991 10.0613 142.296 10.1223 142.557 10.2008C142.828 10.2792 143.063 10.362 143.263 10.4492C143.464 10.5363 143.642 10.6191 143.799 10.6975C143.73 10.8195 143.664 10.9764 143.603 11.1681C143.551 11.3599 143.516 11.5385 143.499 11.7041H143.342Z" fill="#F1F1F1"/>
<path d="M146.026 13.4819C146.026 12.9067 146.013 12.3403 145.987 11.7825C145.969 11.2248 145.947 10.667 145.921 10.1093C146.313 10.1267 146.701 10.1441 147.085 10.1615C147.477 10.1703 147.869 10.1746 148.261 10.1746C148.653 10.1746 149.041 10.1703 149.425 10.1615C149.808 10.1441 150.196 10.1267 150.588 10.1093C150.562 10.24 150.549 10.3707 150.549 10.5014C150.549 10.6321 150.562 10.7629 150.588 10.8936C150.309 10.8762 150.052 10.8587 149.817 10.8413C149.59 10.8239 149.346 10.8064 149.085 10.789C148.832 10.7716 148.553 10.7585 148.248 10.7498C147.943 10.7324 147.577 10.7237 147.15 10.7237C147.141 11.0025 147.128 11.2683 147.111 11.5211C147.102 11.7738 147.098 12.0614 147.098 12.3838C147.098 12.7237 147.098 13.0549 147.098 13.3773C147.106 13.6998 147.111 13.9438 147.111 14.1094C147.494 14.1094 147.838 14.105 148.143 14.0963C148.448 14.0876 148.727 14.0789 148.98 14.0702C149.233 14.0527 149.464 14.0397 149.673 14.031C149.891 14.0135 150.096 13.9961 150.287 13.9787C150.261 14.1094 150.248 14.2445 150.248 14.3839C150.248 14.5146 150.261 14.6454 150.287 14.7761C150.061 14.7499 149.795 14.7281 149.49 14.7107C149.194 14.6933 148.893 14.6846 148.588 14.6846C148.292 14.6759 148.008 14.6715 147.738 14.6715C147.477 14.6628 147.268 14.6584 147.111 14.6584C147.111 14.7369 147.106 14.824 147.098 14.9199C147.098 15.007 147.098 15.1203 147.098 15.2598V16.5539C147.098 17.0507 147.098 17.4603 147.098 17.7827C147.106 18.1052 147.115 18.3492 147.124 18.5148C147.411 18.5148 147.716 18.5148 148.039 18.5148C148.37 18.5148 148.692 18.5104 149.006 18.5017C149.329 18.4843 149.629 18.4668 149.908 18.4494C150.196 18.4233 150.444 18.3884 150.653 18.3448C150.636 18.4058 150.623 18.4756 150.614 18.554C150.614 18.6237 150.614 18.6891 150.614 18.7501C150.614 18.8895 150.627 19.0028 150.653 19.09C150.261 19.0725 149.869 19.0638 149.477 19.0638C149.093 19.0638 148.701 19.0638 148.3 19.0638C147.899 19.0638 147.503 19.0638 147.111 19.0638C146.719 19.0638 146.322 19.0725 145.921 19.09C145.947 18.5322 145.969 17.9788 145.987 17.4298C146.013 16.872 146.026 16.3055 146.026 15.7304V13.4819Z" fill="#F1F1F1"/>
<path d="M72.6344 30.9248C72.6344 30.3496 72.6213 29.7875 72.5951 29.2385C72.5777 28.6807 72.5559 28.1142 72.5298 27.5391C72.861 27.5565 73.1878 27.5739 73.5102 27.5914C73.8414 27.6001 74.1725 27.6044 74.5037 27.6044C74.8349 27.6044 75.1617 27.5957 75.4841 27.5783C75.8153 27.5521 76.1465 27.5391 76.4776 27.5391C77.2445 27.5391 77.8982 27.6393 78.4385 27.8397C78.9875 28.0402 79.4363 28.3278 79.7849 28.7025C80.1335 29.0685 80.3863 29.5217 80.5431 30.062C80.7087 30.5936 80.7915 31.195 80.7915 31.866C80.7915 32.7375 80.639 33.4739 80.334 34.0752C80.0377 34.6678 79.6542 35.1472 79.1836 35.5132C78.7217 35.8792 78.2075 36.1407 77.6411 36.2975C77.0833 36.4457 76.5473 36.5198 76.0332 36.5198C75.7369 36.5198 75.4449 36.5154 75.1573 36.5067C74.8697 36.498 74.5778 36.4936 74.2815 36.4936C73.9852 36.4936 73.6932 36.4936 73.4056 36.4936C73.118 36.4936 72.8261 36.5023 72.5298 36.5198C72.5559 35.9794 72.5777 35.4304 72.5951 34.8726C72.6213 34.3149 72.6344 33.7484 72.6344 33.1732V30.9248ZM73.7063 33.1732C73.7063 34.1144 73.7324 35.0382 73.7847 35.9446C73.9677 35.9881 74.2161 36.023 74.5299 36.0492C74.8436 36.0666 75.166 36.0753 75.4972 36.0753C75.9765 36.0753 76.4558 36.0187 76.9352 35.9054C77.4145 35.7921 77.8415 35.5786 78.2163 35.2648C78.5997 34.9511 78.9091 34.524 79.1444 33.9837C79.3884 33.4347 79.5104 32.7288 79.5104 31.866C79.5104 31.1078 79.4145 30.4847 79.2228 29.9967C79.0398 29.5086 78.7827 29.1252 78.4516 28.8463C78.1291 28.5587 77.7413 28.3626 77.2881 28.258C76.8349 28.1447 76.3382 28.0881 75.7979 28.0881C75.4057 28.0881 75.0397 28.1012 74.6998 28.1273C74.3599 28.1535 74.0549 28.184 73.7847 28.2188C73.7586 28.6371 73.7368 29.0772 73.7194 29.5391C73.7106 29.9923 73.7063 30.4542 73.7063 30.9248V33.1732Z" fill="#F1F1F1"/>
<path d="M82.521 34.5459C82.521 34.084 82.5254 33.6918 82.5341 33.3694C82.5515 33.0382 82.5602 32.7114 82.5602 32.3889C82.5602 32.0839 82.5559 31.7527 82.5471 31.3954C82.5471 31.0381 82.5428 30.6765 82.5341 30.3104C82.7519 30.354 82.935 30.3758 83.0831 30.3758C83.2226 30.3758 83.4012 30.354 83.6191 30.3104C83.5755 30.8333 83.5406 31.4085 83.5145 32.036C83.4971 32.6547 83.4883 33.2909 83.4883 33.9445C83.4883 34.3977 83.5276 34.7463 83.606 34.9903C83.6844 35.2256 83.7803 35.4043 83.8936 35.5263C84.0156 35.6657 84.1681 35.7834 84.3511 35.8792C84.5429 35.9664 84.7651 36.01 85.0178 36.01C85.3838 36.01 85.6889 35.9315 85.9329 35.7747C86.1769 35.6091 86.3556 35.4086 86.4688 35.1733C86.5298 35.0252 86.5778 34.8988 86.6126 34.7942C86.6475 34.6897 86.6736 34.5502 86.6911 34.3759C86.7172 34.2016 86.7303 33.9663 86.7303 33.67C86.739 33.3737 86.7434 32.9685 86.7434 32.4543V31.3562C86.7434 31.1645 86.739 30.9815 86.7303 30.8072C86.7303 30.6329 86.7259 30.4673 86.7172 30.3104C86.8131 30.3279 86.9046 30.3453 86.9917 30.3627C87.0789 30.3714 87.1704 30.3758 87.2663 30.3758C87.3621 30.3758 87.4536 30.3714 87.5408 30.3627C87.6279 30.3453 87.7151 30.3279 87.8022 30.3104C87.7586 30.9902 87.7325 31.6482 87.7238 32.2843C87.7151 32.9118 87.7107 33.5785 87.7107 34.2844C87.7107 34.6766 87.7151 35.06 87.7238 35.4348C87.7325 35.8095 87.7456 36.1712 87.763 36.5198C87.5887 36.5024 87.4188 36.4936 87.2532 36.4936C87.0876 36.4936 86.9177 36.5024 86.7434 36.5198C86.7521 36.4414 86.7564 36.3586 86.7564 36.2714C86.7652 36.1843 86.7695 36.0928 86.7695 35.9969V35.4348H86.7434C86.5168 35.8531 86.2248 36.1625 85.8675 36.3629C85.5102 36.5546 85.1224 36.6505 84.7041 36.6505C84.0243 36.6505 83.4883 36.4719 83.0962 36.1145C82.7127 35.7485 82.521 35.2256 82.521 34.5459Z" fill="#F1F1F1"/>
<path d="M94.3603 33.2124C94.3603 32.8115 94.308 32.4586 94.2035 32.1536C94.1076 31.8398 93.9769 31.5784 93.8113 31.3692C93.6544 31.1601 93.467 31.0032 93.2492 30.8986C93.04 30.7853 92.8221 30.7287 92.5955 30.7287C92.3254 30.7287 92.0639 30.781 91.8112 30.8855C91.5672 30.9814 91.3537 31.147 91.1707 31.3823C90.9877 31.6089 90.8395 31.9095 90.7262 32.2843C90.6216 32.6503 90.5693 33.1035 90.5693 33.6438C90.5693 35.3955 91.2055 36.2714 92.4779 36.2714C92.7481 36.2714 92.9964 36.2016 93.223 36.0622C93.4496 35.914 93.6457 35.7049 93.8113 35.4347C93.9856 35.1646 94.1207 34.8421 94.2165 34.4674C94.3124 34.0926 94.3603 33.6743 94.3603 33.2124ZM95.5107 33.2516C95.5107 33.7571 95.4322 34.219 95.2754 34.6373C95.1272 35.0556 94.9181 35.4173 94.6479 35.7223C94.3865 36.0186 94.0727 36.2496 93.7067 36.4151C93.3494 36.572 92.9616 36.6505 92.5433 36.6505C92.1249 36.6505 91.7459 36.5633 91.406 36.389C91.0748 36.206 90.8221 35.9881 90.6478 35.7354C90.334 35.9881 90.0421 36.2409 89.7719 36.4936H89.5366C89.5541 36.2844 89.5671 36.0317 89.5758 35.7354C89.5933 35.4391 89.6063 35.1253 89.6151 34.7942C89.6238 34.4543 89.6281 34.1101 89.6281 33.7615C89.6368 33.4129 89.6412 33.0904 89.6412 32.7941V30.428C89.6412 30.1317 89.6368 29.8093 89.6281 29.4607C89.6281 29.1121 89.6238 28.7678 89.6151 28.4279C89.6063 28.0881 89.5933 27.7656 89.5758 27.4606C89.5671 27.1469 89.5541 26.8811 89.5366 26.6632C89.7806 26.7068 89.9767 26.7286 90.1249 26.7286C90.2207 26.7286 90.321 26.7242 90.4255 26.7155C90.5301 26.6981 90.6434 26.6806 90.7654 26.6632C90.7393 26.8375 90.7175 27.1164 90.7001 27.4998C90.6826 27.8746 90.6696 28.2972 90.6608 28.7678C90.6521 29.2297 90.6434 29.709 90.6347 30.2058C90.626 30.6938 90.6173 31.1383 90.6086 31.5392H90.6347C90.931 31.0686 91.2578 30.7243 91.6151 30.5064C91.9724 30.2886 92.3864 30.1796 92.857 30.1796C93.3102 30.1796 93.7023 30.2668 94.0335 30.4411C94.3647 30.6067 94.6392 30.8289 94.8571 31.1078C95.0749 31.3867 95.2362 31.7135 95.3407 32.0882C95.454 32.4542 95.5107 32.842 95.5107 33.2516Z" fill="#F1F1F1"/>
<path d="M100.408 33.2648C100.26 33.317 100.086 33.3606 99.8854 33.3955C99.6937 33.4303 99.4976 33.4696 99.2972 33.5131C99.0967 33.548 98.8963 33.5959 98.6958 33.6569C98.5041 33.7179 98.3298 33.8007 98.1729 33.9053C98.0248 34.0099 97.9028 34.1406 97.8069 34.2975C97.7198 34.4543 97.6762 34.6548 97.6762 34.8988C97.6762 35.3084 97.7938 35.6178 98.0291 35.8269C98.2644 36.0361 98.5259 36.1407 98.8135 36.1407C99.1446 36.1407 99.4453 36.0492 99.7155 35.8662C99.9943 35.6831 100.208 35.4696 100.356 35.2256L100.408 33.2648ZM97.1794 30.9379C97.5716 30.6416 97.9333 30.4411 98.2644 30.3366C98.5956 30.232 98.9355 30.1797 99.2841 30.1797C99.5978 30.1797 99.8854 30.2276 100.147 30.3235C100.408 30.4106 100.631 30.5414 100.814 30.7157C100.997 30.8812 101.14 31.086 101.245 31.3301C101.35 31.5654 101.402 31.8268 101.402 32.1144C101.402 32.6111 101.393 33.1079 101.376 33.6046C101.358 34.0927 101.35 34.6112 101.35 35.1602C101.35 35.2648 101.35 35.3781 101.35 35.5001C101.358 35.6134 101.38 35.718 101.415 35.8139C101.45 35.901 101.498 35.9751 101.559 36.0361C101.628 36.0971 101.729 36.1276 101.859 36.1276C101.903 36.1276 101.946 36.1276 101.99 36.1276C102.042 36.1189 102.09 36.1015 102.134 36.0753V36.3629C102.038 36.4065 101.916 36.4413 101.768 36.4675C101.628 36.4936 101.472 36.5067 101.297 36.5067C101.018 36.5067 100.805 36.437 100.657 36.2975C100.509 36.1494 100.421 35.962 100.395 35.7354C100.081 36.0492 99.7721 36.2801 99.4671 36.4283C99.1621 36.5764 98.7873 36.6505 98.3429 36.6505C98.125 36.6505 97.9115 36.62 97.7023 36.559C97.4932 36.498 97.3058 36.3978 97.1402 36.2583C96.9834 36.1189 96.8526 35.9533 96.748 35.7616C96.6522 35.5611 96.6042 35.3345 96.6042 35.0818C96.6042 34.5589 96.7655 34.1537 97.0879 33.8661C97.4191 33.5785 97.8723 33.3868 98.4474 33.2909C98.9181 33.2125 99.2841 33.1471 99.5455 33.0948C99.8157 33.0338 100.012 32.9728 100.134 32.9118C100.265 32.8508 100.343 32.7811 100.369 32.7026C100.395 32.6155 100.408 32.5066 100.408 32.3758C100.408 32.158 100.382 31.9488 100.33 31.7484C100.278 31.5479 100.195 31.3736 100.081 31.2255C99.9682 31.0773 99.82 30.9597 99.637 30.8725C99.454 30.7767 99.2318 30.7287 98.9703 30.7287C98.6218 30.7287 98.2949 30.8072 97.9899 30.964C97.6936 31.1209 97.4714 31.3388 97.3232 31.6176H97.1794V30.9379Z" fill="#F1F1F1"/>
<path d="M103.742 28.0358C103.742 27.8528 103.807 27.6959 103.938 27.5652C104.069 27.4345 104.225 27.3691 104.408 27.3691C104.591 27.3691 104.748 27.4345 104.879 27.5652C105.01 27.6959 105.075 27.8528 105.075 28.0358C105.075 28.2188 105.01 28.3757 104.879 28.5064C104.748 28.6372 104.591 28.7025 104.408 28.7025C104.225 28.7025 104.069 28.6372 103.938 28.5064C103.807 28.3757 103.742 28.2188 103.742 28.0358ZM103.925 32.7549C103.925 32.3628 103.916 31.9532 103.899 31.5261C103.89 31.0904 103.864 30.6852 103.82 30.3104C104.064 30.354 104.26 30.3758 104.408 30.3758C104.557 30.3758 104.753 30.354 104.997 30.3104C104.953 30.6852 104.923 31.0904 104.905 31.5261C104.896 31.9532 104.892 32.3628 104.892 32.7549V34.1145C104.892 34.5066 104.896 34.9206 104.905 35.3563C104.923 35.7834 104.953 36.1712 104.997 36.5198C104.796 36.5023 104.6 36.4936 104.408 36.4936C104.217 36.4936 104.021 36.5023 103.82 36.5198C103.864 36.1712 103.89 35.7834 103.899 35.3563C103.916 34.9206 103.925 34.5066 103.925 34.1145V32.7549Z" fill="#F1F1F1"/>
<path d="M110.862 34.8204C110.931 34.9772 111.023 35.1385 111.136 35.3041C111.258 35.4609 111.402 35.6047 111.567 35.7354C111.742 35.8662 111.942 35.9751 112.169 36.0622C112.395 36.1407 112.648 36.1799 112.927 36.1799C113.215 36.1799 113.472 36.132 113.698 36.0361C113.934 35.9315 114.13 35.7964 114.286 35.6309C114.452 35.4566 114.578 35.2561 114.666 35.0295C114.753 34.7942 114.796 34.5459 114.796 34.2844C114.796 33.8835 114.692 33.5654 114.483 33.3301C114.282 33.0948 114.029 32.8987 113.724 32.7419C113.419 32.585 113.088 32.4412 112.731 32.3105C112.382 32.1798 112.055 32.0185 111.75 31.8268C111.445 31.6264 111.188 31.3736 110.979 31.0686C110.779 30.7636 110.679 30.354 110.679 29.8398C110.679 29.4738 110.744 29.1426 110.875 28.8463C111.005 28.5413 111.193 28.2798 111.437 28.062C111.689 27.8441 111.99 27.6742 112.339 27.5522C112.687 27.4301 113.079 27.3691 113.515 27.3691C113.934 27.3691 114.295 27.4214 114.6 27.526C114.905 27.6219 115.188 27.7744 115.45 27.9835C115.371 28.1317 115.306 28.2886 115.254 28.4541C115.202 28.6197 115.149 28.8289 115.097 29.0816H114.94C114.897 28.9596 114.836 28.8289 114.757 28.6894C114.687 28.5413 114.587 28.4062 114.456 28.2842C114.334 28.1622 114.186 28.062 114.012 27.9835C113.838 27.8964 113.629 27.8528 113.385 27.8528C113.14 27.8528 112.914 27.892 112.705 27.9705C112.504 28.0489 112.326 28.1622 112.169 28.3103C112.021 28.4498 111.903 28.6197 111.816 28.8202C111.737 29.0206 111.698 29.2385 111.698 29.4738C111.698 29.8834 111.798 30.2058 111.999 30.4411C112.208 30.6764 112.465 30.8769 112.77 31.0425C113.075 31.1993 113.402 31.3431 113.751 31.4739C114.108 31.5959 114.439 31.7484 114.744 31.9314C115.049 32.1144 115.302 32.3497 115.502 32.6373C115.711 32.9249 115.816 33.3083 115.816 33.7877C115.816 34.1885 115.742 34.5676 115.594 34.925C115.454 35.2823 115.245 35.596 114.966 35.8662C114.696 36.1276 114.361 36.3324 113.96 36.4806C113.568 36.62 113.119 36.6897 112.613 36.6897C112.073 36.6897 111.633 36.62 111.293 36.4806C110.962 36.3324 110.683 36.1668 110.456 35.9838C110.535 35.7834 110.587 35.6047 110.613 35.4478C110.648 35.2823 110.679 35.0731 110.705 34.8204H110.862Z" fill="#F1F1F1"/>
<path d="M117.555 28.0358C117.555 27.8528 117.62 27.6959 117.751 27.5652C117.881 27.4345 118.038 27.3691 118.221 27.3691C118.404 27.3691 118.561 27.4345 118.692 27.5652C118.823 27.6959 118.888 27.8528 118.888 28.0358C118.888 28.2188 118.823 28.3757 118.692 28.5064C118.561 28.6372 118.404 28.7025 118.221 28.7025C118.038 28.7025 117.881 28.6372 117.751 28.5064C117.62 28.3757 117.555 28.2188 117.555 28.0358ZM117.738 32.7549C117.738 32.3628 117.729 31.9532 117.712 31.5261C117.703 31.0904 117.677 30.6852 117.633 30.3104C117.877 30.354 118.073 30.3758 118.221 30.3758C118.37 30.3758 118.566 30.354 118.81 30.3104C118.766 30.6852 118.736 31.0904 118.718 31.5261C118.709 31.9532 118.705 32.3628 118.705 32.7549V34.1145C118.705 34.5066 118.709 34.9206 118.718 35.3563C118.736 35.7834 118.766 36.1712 118.81 36.5198C118.609 36.5023 118.413 36.4936 118.221 36.4936C118.03 36.4936 117.834 36.5023 117.633 36.5198C117.677 36.1712 117.703 35.7834 117.712 35.3563C117.729 34.9206 117.738 34.5066 117.738 34.1145V32.7549Z" fill="#F1F1F1"/>
<path d="M121.376 30.428C121.376 30.1317 121.371 29.8093 121.363 29.4607C121.363 29.1121 121.358 28.7678 121.35 28.4279C121.341 28.0881 121.328 27.7656 121.31 27.4606C121.302 27.1469 121.289 26.8811 121.271 26.6632C121.515 26.7068 121.711 26.7286 121.859 26.7286C122.008 26.7286 122.204 26.7068 122.448 26.6632C122.43 26.8811 122.413 27.1469 122.395 27.4606C122.387 27.7656 122.378 28.0881 122.369 28.4279C122.361 28.7678 122.352 29.1121 122.343 29.4607C122.343 29.8093 122.343 30.1317 122.343 30.428V32.7941C122.343 33.0904 122.343 33.4129 122.343 33.7615C122.352 34.1101 122.361 34.4543 122.369 34.7942C122.378 35.1341 122.387 35.4565 122.395 35.7615C122.413 36.0666 122.43 36.3193 122.448 36.5197C122.247 36.5023 122.051 36.4936 121.859 36.4936C121.668 36.4936 121.472 36.5023 121.271 36.5197C121.289 36.3193 121.302 36.0666 121.31 35.7615C121.328 35.4565 121.341 35.1341 121.35 34.7942C121.358 34.4543 121.363 34.1101 121.363 33.7615C121.371 33.4129 121.376 33.0904 121.376 32.7941V30.428Z" fill="#F1F1F1"/>
<path d="M124.831 28.0358C124.831 27.8528 124.897 27.6959 125.027 27.5652C125.158 27.4345 125.315 27.3691 125.498 27.3691C125.681 27.3691 125.838 27.4345 125.969 27.5652C126.099 27.6959 126.165 27.8528 126.165 28.0358C126.165 28.2188 126.099 28.3757 125.969 28.5064C125.838 28.6372 125.681 28.7025 125.498 28.7025C125.315 28.7025 125.158 28.6372 125.027 28.5064C124.897 28.3757 124.831 28.2188 124.831 28.0358ZM125.014 32.7549C125.014 32.3628 125.006 31.9532 124.988 31.5261C124.979 31.0904 124.953 30.6852 124.91 30.3104C125.154 30.354 125.35 30.3758 125.498 30.3758C125.646 30.3758 125.842 30.354 126.086 30.3104C126.043 30.6852 126.012 31.0904 125.995 31.5261C125.986 31.9532 125.982 32.3628 125.982 32.7549V34.1145C125.982 34.5066 125.986 34.9206 125.995 35.3563C126.012 35.7834 126.043 36.1712 126.086 36.5198C125.886 36.5023 125.69 36.4936 125.498 36.4936C125.306 36.4936 125.11 36.5023 124.91 36.5198C124.953 36.1712 124.979 35.7834 124.988 35.3563C125.006 34.9206 125.014 34.5066 125.014 34.1145V32.7549Z" fill="#F1F1F1"/>
<path d="M127.868 33.4347C127.868 32.8682 127.964 32.3802 128.156 31.9706C128.347 31.561 128.596 31.2255 128.901 30.964C129.215 30.6939 129.572 30.4978 129.973 30.3758C130.374 30.245 130.783 30.1797 131.202 30.1797C131.681 30.1797 132.108 30.2407 132.483 30.3627C132.866 30.476 133.141 30.6067 133.306 30.7549C133.245 30.8856 133.189 31.025 133.136 31.1732C133.093 31.3126 133.054 31.4608 133.019 31.6176H132.914C132.853 31.5044 132.77 31.3911 132.666 31.2778C132.561 31.1558 132.435 31.0468 132.287 30.951C132.147 30.8464 131.99 30.7636 131.816 30.7026C131.642 30.6329 131.45 30.598 131.241 30.598C130.849 30.598 130.509 30.6721 130.221 30.8202C129.942 30.9597 129.711 31.1558 129.528 31.4085C129.354 31.6612 129.223 31.9619 129.136 32.3105C129.058 32.6504 129.019 33.0207 129.019 33.4216C129.019 34.3193 129.21 34.999 129.594 35.4609C129.977 35.9141 130.539 36.1407 131.28 36.1407C131.454 36.1407 131.633 36.1189 131.816 36.0753C131.999 36.023 132.178 35.9577 132.352 35.8792C132.526 35.7921 132.688 35.6919 132.836 35.5786C132.993 35.4653 133.128 35.3433 133.241 35.2125L133.306 35.2518C133.263 35.4609 133.237 35.6744 133.228 35.8923C132.966 36.1015 132.64 36.2801 132.247 36.4283C131.864 36.5764 131.463 36.6505 131.045 36.6505C130.67 36.6505 130.291 36.5982 129.907 36.4936C129.533 36.3803 129.193 36.1973 128.888 35.9446C128.583 35.6831 128.334 35.3476 128.143 34.938C127.96 34.5284 127.868 34.0273 127.868 33.4347Z" fill="#F1F1F1"/>
<path d="M135.463 33.4347C135.463 33.8007 135.494 34.1537 135.555 34.4936C135.624 34.8334 135.738 35.1385 135.895 35.4086C136.051 35.6701 136.261 35.8792 136.522 36.0361C136.783 36.193 137.106 36.2714 137.489 36.2714C137.873 36.2714 138.195 36.193 138.457 36.0361C138.718 35.8792 138.927 35.6701 139.084 35.4086C139.241 35.1385 139.35 34.8334 139.411 34.4936C139.481 34.1537 139.516 33.8007 139.516 33.4347C139.516 33.0687 139.481 32.7157 139.411 32.3758C139.35 32.036 139.241 31.7353 139.084 31.4738C138.927 31.2037 138.718 30.9902 138.457 30.8333C138.195 30.6764 137.873 30.598 137.489 30.598C137.106 30.598 136.783 30.6764 136.522 30.8333C136.261 30.9902 136.051 31.2037 135.895 31.4738C135.738 31.7353 135.624 32.036 135.555 32.3758C135.494 32.7157 135.463 33.0687 135.463 33.4347ZM134.313 33.4347C134.313 32.8421 134.404 32.341 134.587 31.9314C134.779 31.5131 135.027 31.1775 135.332 30.9248C135.637 30.6634 135.977 30.476 136.352 30.3627C136.735 30.2407 137.115 30.1797 137.489 30.1797C137.873 30.1797 138.252 30.2407 138.627 30.3627C139.001 30.476 139.341 30.6634 139.646 30.9248C139.951 31.1775 140.195 31.5131 140.378 31.9314C140.57 32.341 140.666 32.8421 140.666 33.4347C140.666 34.0273 140.57 34.5328 140.378 34.9511C140.195 35.3607 139.951 35.6962 139.646 35.9577C139.341 36.2104 139.001 36.389 138.627 36.4936C138.252 36.5982 137.873 36.6505 137.489 36.6505C137.115 36.6505 136.735 36.5982 136.352 36.4936C135.977 36.389 135.637 36.2104 135.332 35.9577C135.027 35.6962 134.779 35.3607 134.587 34.9511C134.404 34.5328 134.313 34.0273 134.313 33.4347Z" fill="#F1F1F1"/>
<path d="M146.374 32.8464C146.374 32.1928 146.248 31.7004 145.995 31.3693C145.743 31.0294 145.394 30.8594 144.949 30.8594C144.339 30.8594 143.891 31.0468 143.603 31.4216C143.324 31.7963 143.185 32.3236 143.185 33.0033V34.1145C143.185 34.5066 143.189 34.9206 143.198 35.3563C143.215 35.7834 143.246 36.1712 143.289 36.5198C143.089 36.5023 142.893 36.4936 142.701 36.4936C142.509 36.4936 142.313 36.5023 142.113 36.5198C142.156 36.1712 142.183 35.7834 142.191 35.3563C142.209 34.9206 142.217 34.5066 142.217 34.1145V32.7549C142.217 32.3628 142.209 31.9532 142.191 31.5261C142.183 31.0904 142.156 30.6852 142.113 30.3104C142.357 30.354 142.553 30.3758 142.701 30.3758C142.771 30.3758 142.845 30.3714 142.923 30.3627C143.01 30.3453 143.111 30.3278 143.224 30.3104C143.198 30.659 143.185 31.0076 143.185 31.3562H143.211C143.455 30.9815 143.747 30.6939 144.087 30.4934C144.427 30.2843 144.832 30.1797 145.302 30.1797C145.546 30.1797 145.79 30.2145 146.034 30.2843C146.287 30.354 146.514 30.476 146.714 30.6503C146.915 30.8159 147.076 31.0468 147.198 31.3431C147.329 31.6307 147.394 32.0011 147.394 32.4543C147.394 32.829 147.385 33.2168 147.368 33.6177C147.35 34.0099 147.342 34.4282 147.342 34.8727V35.7224C147.342 35.8618 147.342 36.0012 147.342 36.1407C147.35 36.2714 147.359 36.3978 147.368 36.5198C147.194 36.5023 147.011 36.4936 146.819 36.4936C146.636 36.4936 146.457 36.5023 146.283 36.5198C146.3 36.0666 146.318 35.6004 146.335 35.121C146.361 34.6417 146.374 34.1493 146.374 33.6439V32.8464Z" fill="#F1F1F1"/>
<path d="M152.57 32.049C152.57 31.3083 152.688 30.6503 152.923 30.0751C153.167 29.4912 153.503 28.9988 153.93 28.5979C154.366 28.1971 154.884 27.892 155.485 27.6829C156.087 27.4737 156.745 27.3691 157.459 27.3691C158.183 27.3691 158.845 27.4737 159.446 27.6829C160.048 27.892 160.562 28.1971 160.989 28.5979C161.425 28.9988 161.76 29.4912 161.995 30.0751C162.239 30.6503 162.362 31.3083 162.362 32.049C162.362 32.7898 162.239 33.4521 161.995 34.036C161.76 34.6112 161.425 35.0993 160.989 35.5001C160.562 35.901 160.048 36.2017 159.446 36.4021C158.845 36.5939 158.183 36.6897 157.459 36.6897C156.745 36.6897 156.087 36.5939 155.485 36.4021C154.884 36.2017 154.366 35.901 153.93 35.5001C153.503 35.0993 153.167 34.6112 152.923 34.036C152.688 33.4521 152.57 32.7898 152.57 32.049ZM161.08 32.049C161.08 31.3257 160.989 30.7026 160.806 30.1797C160.623 29.6481 160.366 29.2123 160.035 28.8725C159.712 28.5239 159.329 28.2668 158.884 28.1012C158.449 27.9356 157.974 27.8528 157.459 27.8528C156.954 27.8528 156.479 27.9356 156.034 28.1012C155.599 28.2668 155.215 28.5239 154.884 28.8725C154.562 29.2123 154.309 29.6481 154.126 30.1797C153.943 30.7026 153.851 31.3257 153.851 32.049C153.851 32.7724 153.943 33.3998 154.126 33.9315C154.309 34.4543 154.562 34.8901 154.884 35.2387C155.215 35.5786 155.599 35.8313 156.034 35.9969C156.479 36.1625 156.954 36.2453 157.459 36.2453C157.974 36.2453 158.449 36.1625 158.884 35.9969C159.329 35.8313 159.712 35.5786 160.035 35.2387C160.366 34.8901 160.623 34.4543 160.806 33.9315C160.989 33.3998 161.08 32.7724 161.08 32.049Z" fill="#F1F1F1"/>
<path d="M167.264 33.2648C167.115 33.317 166.941 33.3606 166.741 33.3955C166.549 33.4303 166.353 33.4696 166.152 33.5131C165.952 33.548 165.751 33.5959 165.551 33.6569C165.359 33.7179 165.185 33.8007 165.028 33.9053C164.88 34.0099 164.758 34.1406 164.662 34.2975C164.575 34.4543 164.531 34.6548 164.531 34.8988C164.531 35.3084 164.649 35.6178 164.884 35.8269C165.12 36.0361 165.381 36.1407 165.669 36.1407C166 36.1407 166.301 36.0492 166.571 35.8662C166.85 35.6831 167.063 35.4696 167.211 35.2256L167.264 33.2648ZM164.035 30.9379C164.427 30.6416 164.788 30.4411 165.12 30.3366C165.451 30.232 165.791 30.1797 166.139 30.1797C166.453 30.1797 166.741 30.2276 167.002 30.3235C167.264 30.4106 167.486 30.5414 167.669 30.7157C167.852 30.8812 167.996 31.086 168.1 31.3301C168.205 31.5654 168.257 31.8268 168.257 32.1144C168.257 32.6111 168.248 33.1079 168.231 33.6046C168.213 34.0927 168.205 34.6112 168.205 35.1602C168.205 35.2648 168.205 35.3781 168.205 35.5001C168.214 35.6134 168.235 35.718 168.27 35.8139C168.305 35.901 168.353 35.9751 168.414 36.0361C168.484 36.0971 168.584 36.1276 168.715 36.1276C168.758 36.1276 168.802 36.1276 168.845 36.1276C168.898 36.1189 168.946 36.1015 168.989 36.0753V36.3629C168.893 36.4065 168.771 36.4413 168.623 36.4675C168.484 36.4936 168.327 36.5067 168.152 36.5067C167.874 36.5067 167.66 36.437 167.512 36.2975C167.364 36.1494 167.277 35.962 167.251 35.7354C166.937 36.0492 166.627 36.2801 166.322 36.4283C166.017 36.5764 165.643 36.6505 165.198 36.6505C164.98 36.6505 164.767 36.62 164.558 36.559C164.349 36.498 164.161 36.3978 163.995 36.2583C163.839 36.1189 163.708 35.9533 163.604 35.7616C163.508 35.5611 163.459 35.3345 163.459 35.0818C163.459 34.5589 163.621 34.1537 163.943 33.8661C164.274 33.5785 164.727 33.3868 165.303 33.2909C165.773 33.2125 166.139 33.1471 166.401 33.0948C166.671 33.0338 166.867 32.9728 166.989 32.9118C167.12 32.8508 167.198 32.7811 167.224 32.7026C167.25 32.6155 167.264 32.5066 167.264 32.3758C167.264 32.158 167.237 31.9488 167.185 31.7484C167.133 31.5479 167.05 31.3736 166.937 31.2255C166.823 31.0773 166.676 30.9597 166.493 30.8725C166.31 30.7767 166.087 30.7287 165.826 30.7287C165.477 30.7287 165.15 30.8072 164.845 30.964C164.549 31.1209 164.327 31.3388 164.179 31.6176H164.035V30.9379Z" fill="#F1F1F1"/>
<path d="M170.375 35.304C170.418 35.3912 170.484 35.4871 170.571 35.5916C170.667 35.6962 170.776 35.7964 170.898 35.8923C171.029 35.9795 171.172 36.0535 171.329 36.1145C171.495 36.1755 171.669 36.206 171.852 36.206C172.018 36.206 172.174 36.1799 172.323 36.1276C172.479 36.0753 172.615 36.0012 172.728 35.9054C172.85 35.8095 172.946 35.6875 173.016 35.5393C173.085 35.3912 173.12 35.2213 173.12 35.0295C173.12 34.7594 173.042 34.5546 172.885 34.4151C172.737 34.267 172.549 34.1493 172.323 34.0622C172.096 33.9663 171.848 33.8835 171.578 33.8138C171.308 33.7441 171.059 33.6482 170.832 33.5262C170.606 33.3955 170.414 33.2255 170.257 33.0164C170.109 32.8072 170.035 32.5196 170.035 32.1536C170.035 31.866 170.083 31.6046 170.179 31.3693C170.275 31.1253 170.414 30.9161 170.597 30.7418C170.78 30.5675 171.007 30.4324 171.277 30.3366C171.547 30.232 171.856 30.1797 172.205 30.1797C172.527 30.1797 172.798 30.2233 173.016 30.3104C173.242 30.3976 173.456 30.476 173.656 30.5457C173.586 30.6764 173.521 30.8377 173.46 31.0294C173.399 31.2211 173.36 31.3693 173.342 31.4738H173.185C173.116 31.2647 172.981 31.0773 172.78 30.9117C172.58 30.7462 172.331 30.6634 172.035 30.6634C171.904 30.6634 171.774 30.6852 171.643 30.7287C171.512 30.7723 171.395 30.8377 171.29 30.9248C171.186 31.012 171.098 31.1253 171.028 31.2647C170.959 31.4041 170.924 31.5697 170.924 31.7614C170.924 32.0403 170.998 32.2582 171.146 32.4151C171.303 32.5632 171.495 32.6809 171.721 32.768C171.948 32.8552 172.196 32.9336 172.466 33.0033C172.737 33.0643 172.985 33.1558 173.212 33.2778C173.438 33.3911 173.626 33.5524 173.774 33.7615C173.931 33.9707 174.009 34.2583 174.009 34.6243C174.009 34.877 173.952 35.1254 173.839 35.3694C173.734 35.6134 173.578 35.8357 173.368 36.0361C173.168 36.2278 172.924 36.3803 172.637 36.4936C172.349 36.5982 172.022 36.6505 171.656 36.6505C171.255 36.6505 170.92 36.6113 170.649 36.5328C170.379 36.4544 170.153 36.3629 169.97 36.2583C170.022 36.145 170.074 35.9925 170.127 35.8008C170.188 35.6003 170.218 35.4348 170.218 35.304H170.375Z" fill="#F1F1F1"/>
<path d="M175.678 28.0358C175.678 27.8528 175.743 27.6959 175.874 27.5652C176.005 27.4345 176.162 27.3691 176.345 27.3691C176.528 27.3691 176.685 27.4345 176.815 27.5652C176.946 27.6959 177.011 27.8528 177.011 28.0358C177.011 28.2188 176.946 28.3757 176.815 28.5064C176.685 28.6372 176.528 28.7025 176.345 28.7025C176.162 28.7025 176.005 28.6372 175.874 28.5064C175.743 28.3757 175.678 28.2188 175.678 28.0358ZM175.861 32.7549C175.861 32.3628 175.852 31.9532 175.835 31.5261C175.826 31.0904 175.8 30.6852 175.757 30.3104C176.001 30.354 176.197 30.3758 176.345 30.3758C176.493 30.3758 176.689 30.354 176.933 30.3104C176.889 30.6852 176.859 31.0904 176.842 31.5261C176.833 31.9532 176.828 32.3628 176.828 32.7549V34.1145C176.828 34.5066 176.833 34.9206 176.842 35.3563C176.859 35.7834 176.889 36.1712 176.933 36.5198C176.733 36.5023 176.537 36.4936 176.345 36.4936C176.153 36.4936 175.957 36.5023 175.757 36.5198C175.8 36.1712 175.826 35.7834 175.835 35.3563C175.852 34.9206 175.861 34.5066 175.861 34.1145V32.7549Z" fill="#F1F1F1"/>
<path d="M179.094 35.304C179.138 35.3912 179.203 35.4871 179.29 35.5916C179.386 35.6962 179.495 35.7964 179.617 35.8923C179.748 35.9795 179.891 36.0535 180.048 36.1145C180.214 36.1755 180.388 36.206 180.571 36.206C180.737 36.206 180.894 36.1799 181.042 36.1276C181.199 36.0753 181.334 36.0012 181.447 35.9054C181.569 35.8095 181.665 35.6875 181.735 35.5393C181.804 35.3912 181.839 35.2213 181.839 35.0295C181.839 34.7594 181.761 34.5546 181.604 34.4151C181.456 34.267 181.268 34.1493 181.042 34.0622C180.815 33.9663 180.567 33.8835 180.297 33.8138C180.027 33.7441 179.778 33.6482 179.552 33.5262C179.325 33.3955 179.133 33.2255 178.976 33.0164C178.828 32.8072 178.754 32.5196 178.754 32.1536C178.754 31.866 178.802 31.6046 178.898 31.3693C178.994 31.1253 179.133 30.9161 179.316 30.7418C179.499 30.5675 179.726 30.4324 179.996 30.3366C180.266 30.232 180.576 30.1797 180.924 30.1797C181.247 30.1797 181.517 30.2233 181.735 30.3104C181.961 30.3976 182.175 30.476 182.375 30.5457C182.306 30.6764 182.24 30.8377 182.179 31.0294C182.118 31.2211 182.079 31.3693 182.062 31.4738H181.905C181.835 31.2647 181.7 31.0773 181.499 30.9117C181.299 30.7462 181.051 30.6634 180.754 30.6634C180.624 30.6634 180.493 30.6852 180.362 30.7287C180.231 30.7723 180.114 30.8377 180.009 30.9248C179.905 31.012 179.817 31.1253 179.748 31.2647C179.678 31.4041 179.643 31.5697 179.643 31.7614C179.643 32.0403 179.717 32.2582 179.865 32.4151C180.022 32.5632 180.214 32.6809 180.441 32.768C180.667 32.8552 180.916 32.9336 181.186 33.0033C181.456 33.0643 181.704 33.1558 181.931 33.2778C182.157 33.3911 182.345 33.5524 182.493 33.7615C182.65 33.9707 182.728 34.2583 182.728 34.6243C182.728 34.877 182.672 35.1254 182.558 35.3694C182.454 35.6134 182.297 35.8357 182.088 36.0361C181.887 36.2278 181.643 36.3803 181.356 36.4936C181.068 36.5982 180.741 36.6505 180.375 36.6505C179.974 36.6505 179.639 36.6113 179.369 36.5328C179.098 36.4544 178.872 36.3629 178.689 36.2583C178.741 36.145 178.793 35.9925 178.846 35.8008C178.907 35.6003 178.937 35.4348 178.937 35.304H179.094Z" fill="#F1F1F1"/>
<path d="M79.445 49.2174C79.445 47.9799 79.4407 47.0256 79.4319 46.3545C79.4232 45.6835 79.4014 45.2216 79.3666 44.9689C79.4624 44.9863 79.5539 45.0037 79.6411 45.0212C79.7282 45.0299 79.8154 45.0342 79.9025 45.0342C80.0158 45.0342 80.1466 45.0124 80.2947 44.9689C80.2686 45.2739 80.2424 45.6399 80.2163 46.0669C80.1901 46.4853 80.1683 46.9384 80.1509 47.4265C80.1335 47.9058 80.1161 48.4025 80.0986 48.9167C80.0812 49.4222 80.0681 49.9146 80.0594 50.3939C80.0507 50.9778 79.9592 51.5007 79.7849 51.9626C79.6193 52.4245 79.3797 52.8166 79.0659 53.1391C78.7522 53.4615 78.3644 53.7056 77.9025 53.8711C77.4493 54.0367 76.9264 54.1195 76.3338 54.1195C75.0266 54.1195 74.0766 53.8232 73.484 53.2306C72.8914 52.638 72.5951 51.7011 72.5951 50.42C72.5951 50.0104 72.6038 49.6488 72.6213 49.335C72.6474 49.0126 72.6605 48.6858 72.6605 48.3546C72.6605 47.6226 72.6518 46.9733 72.6343 46.4068C72.6169 45.8404 72.5995 45.361 72.582 44.9689C72.6866 44.9863 72.7999 45.0037 72.9219 45.0212C73.0439 45.0299 73.1572 45.0342 73.2618 45.0342C73.3577 45.0342 73.4492 45.0299 73.5363 45.0212C73.6322 45.0037 73.728 44.9863 73.8239 44.9689C73.8065 45.1606 73.789 45.4133 73.7716 45.7271C73.7542 46.0321 73.7368 46.3807 73.7193 46.7729C73.7019 47.165 73.6888 47.5877 73.6801 48.0409C73.6714 48.494 73.667 48.9647 73.667 49.4527C73.667 49.749 73.6714 50.0584 73.6801 50.3808C73.6888 50.6946 73.7193 51.0039 73.7716 51.309C73.8239 51.6053 73.9067 51.8929 74.02 52.1717C74.142 52.4419 74.3119 52.6816 74.5298 52.8907C74.7477 53.0912 75.0222 53.2524 75.3534 53.3744C75.6845 53.4877 76.0941 53.5443 76.5822 53.5443C77.0615 53.5443 77.4624 53.4746 77.7848 53.3352C78.116 53.1957 78.3862 53.0127 78.5953 52.7861C78.8045 52.5595 78.9657 52.2981 79.079 52.0018C79.201 51.7055 79.2881 51.3961 79.3404 51.0737C79.3927 50.7512 79.4232 50.4288 79.4319 50.1063C79.4407 49.7839 79.445 49.4875 79.445 49.2174Z" fill="#F1F1F1"/>
<path d="M84.2335 49.8841C84.4601 49.8841 84.6954 49.8884 84.9394 49.8972C85.1834 49.9059 85.4187 49.9102 85.6453 49.9102C85.8893 49.9102 86.1333 49.9102 86.3774 49.9102C86.6214 49.9015 86.8654 49.8928 87.1094 49.8841L85.6584 46.5637L84.2335 49.8841ZM90.0245 53.9496C89.9025 53.9322 89.7849 53.9234 89.6716 53.9234C89.567 53.9234 89.4537 53.9234 89.3317 53.9234C89.2097 53.9234 89.0921 53.9234 88.9788 53.9234C88.8742 53.9234 88.7609 53.9322 88.6389 53.9496C88.5779 53.7491 88.4951 53.5095 88.3905 53.2306C88.2859 52.943 88.1683 52.6467 88.0376 52.3417C87.9155 52.028 87.7892 51.7142 87.6585 51.4005C87.5277 51.078 87.4057 50.773 87.2924 50.4854C87.0136 50.4767 86.7303 50.4723 86.4427 50.4723C86.1551 50.4636 85.8676 50.4593 85.58 50.4593C85.3098 50.4593 85.044 50.4636 84.7825 50.4723C84.5211 50.4723 84.2553 50.4767 83.9851 50.4854C83.7063 51.1652 83.4535 51.8144 83.2269 52.4332C83.0003 53.0432 82.8304 53.5487 82.7171 53.9496C82.569 53.9322 82.4077 53.9234 82.2334 53.9234C82.0591 53.9234 81.8979 53.9322 81.7498 53.9496C82.4557 52.4245 83.1441 50.9081 83.8152 49.4004C84.4862 47.8927 85.1616 46.3589 85.8414 44.799H86.0898C86.2989 45.3044 86.5255 45.8535 86.7695 46.4461C87.0136 47.03 87.2619 47.6226 87.5147 48.2239C87.7674 48.8252 88.0201 49.4222 88.2729 50.0148C88.5256 50.6074 88.7609 51.1608 88.9788 51.675C89.2053 52.1805 89.4058 52.6336 89.5801 53.0345C89.7631 53.4354 89.9113 53.7404 90.0245 53.9496Z" fill="#F1F1F1"/>
<path d="M91.5279 48.3415C91.5279 47.7664 91.5148 47.1999 91.4887 46.6421C91.4713 46.0844 91.4495 45.5266 91.4233 44.9689C91.8155 44.9863 92.2033 45.0037 92.5868 45.0212C92.9789 45.0299 93.3711 45.0342 93.7633 45.0342C94.1555 45.0342 94.5433 45.0299 94.9267 45.0212C95.3102 45.0037 95.698 44.9863 96.0902 44.9689C96.064 45.0996 96.0509 45.2303 96.0509 45.361C96.0509 45.4918 96.064 45.6225 96.0902 45.7532C95.8113 45.7358 95.5542 45.7184 95.3189 45.7009C95.0923 45.6835 94.8483 45.6661 94.5868 45.6486C94.3341 45.6312 94.0552 45.6181 93.7502 45.6094C93.4452 45.592 93.0792 45.5833 92.6521 45.5833C92.6434 45.8622 92.6303 46.128 92.6129 46.3807C92.6042 46.6334 92.5999 46.921 92.5999 47.2435C92.5999 47.5833 92.5999 47.9145 92.5999 48.237C92.6086 48.5594 92.6129 48.8034 92.6129 48.969C92.9964 48.969 93.3406 48.9647 93.6456 48.9559C93.9507 48.9472 94.2295 48.9385 94.4823 48.9298C94.735 48.9124 94.9659 48.8993 95.1751 48.8906C95.393 48.8731 95.5978 48.8557 95.7895 48.8383C95.7634 48.969 95.7503 49.1041 95.7503 49.2435C95.7503 49.3743 95.7634 49.505 95.7895 49.6357C95.5629 49.6096 95.2971 49.5878 94.9921 49.5703C94.6958 49.5529 94.3951 49.5442 94.0901 49.5442C93.7938 49.5355 93.5106 49.5311 93.2404 49.5311C92.9789 49.5224 92.7698 49.518 92.6129 49.518C92.6129 49.5965 92.6086 49.6836 92.5999 49.7795C92.5999 49.8666 92.5999 49.9799 92.5999 50.1194V51.4135C92.5999 51.9103 92.5999 52.3199 92.5999 52.6423C92.6086 52.9648 92.6173 53.2088 92.626 53.3744C92.9136 53.3744 93.2186 53.3744 93.5411 53.3744C93.8722 53.3744 94.1947 53.37 94.5084 53.3613C94.8309 53.3439 95.1315 53.3265 95.4104 53.309C95.698 53.2829 95.9464 53.248 96.1555 53.2044C96.1381 53.2655 96.125 53.3352 96.1163 53.4136C96.1163 53.4833 96.1163 53.5487 96.1163 53.6097C96.1163 53.7491 96.1294 53.8624 96.1555 53.9496C95.7634 53.9321 95.3712 53.9234 94.979 53.9234C94.5956 53.9234 94.2034 53.9234 93.8025 53.9234C93.4016 53.9234 93.0051 53.9234 92.6129 53.9234C92.2207 53.9234 91.8242 53.9321 91.4233 53.9496C91.4495 53.3918 91.4713 52.8384 91.4887 52.2894C91.5148 51.7316 91.5279 51.1652 91.5279 50.59V48.3415Z" fill="#F1F1F1"/>
<path d="M28.8564 0.741555C22.392 1.27354 15.5406 4.17532 10.7043 8.44736C5.8036 12.7516 2.01518 19.2484 0.806106 25.4388C0.338601 27.8408 0.177391 29.4367 0.403083 29.5174C0.49981 29.5658 1.59603 29.5658 2.82123 29.5495L5.07814 29.5013L5.12651 28.937C5.20712 27.8248 5.8036 24.9713 6.19049 23.7783C8.125 17.8942 11.8006 13.074 17.0076 9.64029C18.394 8.72142 21.6021 7.15766 23.2142 6.62567C26.4222 5.56169 30.6942 5.07807 34.1763 5.4005C41.0921 6.02922 46.5896 8.60856 51.3773 13.4771C53.199 15.3471 53.4087 15.605 54.5695 17.3783C56.7457 20.7154 58.3577 25.0357 58.648 28.276L58.7608 29.5013L61.2274 29.5495C62.6942 29.5658 63.6776 29.5334 63.6776 29.4367C63.6776 29.0337 63.323 26.6317 63.0972 25.5516C62.0817 20.6992 59.7118 15.8791 56.3587 11.8811C54.3276 9.47909 52.0868 7.49621 49.5075 5.8035C43.3493 1.77329 36.5302 0.0967178 28.8564 0.741555Z" fill="#F1F1F1"/>
<path d="M27.8894 26.1965V40.8666H27.1638H26.4384V29.4207V17.991L25.9225 17.8942C25.6324 17.8459 24.8908 17.8136 24.2621 17.8459L23.1336 17.8942L23.0853 29.3722L23.053 40.8666H22.2631C21.6989 40.8666 21.4409 40.8021 21.3764 40.6087C21.3281 40.4636 21.2797 36.2238 21.2797 31.1778V22.0051H19.6676H18.0556V31.4357V40.8666H17.1689H16.2822V33.5314V26.1965L15.9115 26.1159C15.718 26.0675 15.0409 26.0353 14.4283 26.0675L13.2999 26.1159L13.2515 33.4832L13.2193 40.8666H12.252H11.2848L11.2525 35.4176L11.2042 29.985L9.70492 29.9365L8.22178 29.8883V35.3855V40.8666H7.41573C6.64193 40.8666 6.60969 40.8503 6.36788 40.2702C5.99711 39.3835 5.48125 37.2878 5.25556 35.724L5.06209 34.3375H2.64396H0.241943L0.290306 35.1437C0.53212 39.2868 2.45051 44.9128 4.91701 48.7013C9.81775 56.2135 17.0077 61.0661 25.713 62.7266C28.4213 63.2424 32.7256 63.4197 35.2565 63.1296C43.9458 62.1301 50.8937 58.4868 56.4394 52.0383C58.2126 49.9748 59.196 48.524 60.3407 46.2671C62.2269 42.5431 63.4037 38.4967 63.5489 35.2243L63.5971 34.3375H61.1789H58.7608L58.6481 35.3049C58.4223 36.9975 58.1805 38.1743 57.7774 39.5447L57.3744 40.8827L56.6167 40.8342L55.859 40.786L55.8106 35.337L55.7784 29.9044H54.4889H53.1991V35.3855V40.8666H52.1511H51.1034V33.5314V26.1965H49.733H48.3629V33.5314V40.8666H47.4116C46.7024 40.8666 46.4445 40.8021 46.3639 40.6087C46.3154 40.4636 46.2672 36.2238 46.2672 31.1778V22.0051H44.8968H43.5267V31.4357V40.8666H42.5593H41.5919L41.5598 29.3722L41.5113 17.8942H40.1412H38.7708L38.7226 29.3722L38.6904 40.8666H37.8037H36.917L36.8848 26.2288L36.8363 11.6071H35.1437H33.4509L33.4027 26.2288L33.3705 40.8666H32.4838H31.5971V26.1965V11.5265H29.7432H27.8894V26.1965ZM54.9723 45.7995C54.9723 45.9607 53.5055 47.9758 52.9091 48.6368C52.4254 49.1689 52.2642 49.2495 51.6514 49.2495C51.2647 49.2495 50.5876 49.3944 50.1361 49.5717C49.056 49.9908 48.2983 49.9748 46.8476 49.4911C45.3644 48.9914 45.0259 48.9914 43.6073 49.4911C42.1723 49.9908 41.5759 49.9908 40.0284 49.475C38.658 49.0077 37.9489 49.0398 36.5624 49.588C35.5629 49.9748 34.5634 49.9748 33.58 49.588C32.1774 49.0398 31.5971 49.0238 30.2751 49.475C28.8244 49.9748 28.1634 49.9908 27.1477 49.5717C25.8742 49.0238 25.2132 49.0077 23.843 49.475C22.3276 49.9908 21.7634 50.0072 20.248 49.4911C18.7649 48.9914 18.4263 48.9914 17.0077 49.4911C15.6374 49.9748 14.9442 49.9908 13.8641 49.5717C13.4127 49.3944 12.6873 49.2495 12.252 49.2495C11.4782 49.2495 11.4298 49.2171 10.656 48.2822C9.81775 47.2827 8.86663 45.9607 8.86663 45.7995C8.86663 45.751 19.2485 45.7028 31.9195 45.7028C44.6068 45.7028 54.9723 45.751 54.9723 45.7995ZM20.1513 52.7959C21.586 53.4248 22.3921 53.4248 23.7301 52.7959C25.0036 52.1995 25.3583 52.1995 26.6319 52.7959C27.9216 53.4087 28.5986 53.4087 29.9851 52.7959C30.5976 52.522 31.2746 52.3123 31.5004 52.3123C31.7422 52.3123 32.4032 52.522 32.9996 52.7959C34.3861 53.4248 35.2244 53.4248 36.5624 52.7959C37.8519 52.1835 38.2874 52.1835 39.6575 52.7959C40.4152 53.1345 41.0116 53.2796 41.5919 53.2796C42.1723 53.2796 42.769 53.1345 43.5267 52.7959C44.8323 52.2317 45.1065 52.2156 46.3478 52.6347C46.8636 52.812 47.5246 52.9572 47.8147 52.9572C48.105 52.9572 48.3789 53.0217 48.4274 53.1023C48.6529 53.473 43.2042 56.5039 41.9144 56.7296C41.5759 56.7778 40.8182 56.6972 40.0121 56.5039C38.3516 56.1008 38.3034 56.1008 36.5784 56.536C35.1759 56.8745 35.1277 56.8906 33.967 56.6005C32.4193 56.246 31.4037 56.246 30.0011 56.6005C29.0662 56.8424 28.7437 56.8585 28.0988 56.7133C27.6797 56.6166 26.9059 56.4393 26.4062 56.3266C25.5679 56.1329 25.3583 56.1493 23.9719 56.4878C22.2309 56.9069 21.9084 56.8745 19.7644 55.875C18.3296 55.2141 15.6374 53.6021 15.315 53.199C15.1376 52.9896 15.186 52.9572 15.6535 52.9572C15.9598 52.9572 16.6369 52.812 17.1689 52.6347C18.4908 52.2156 18.8777 52.2317 20.1513 52.7959Z" fill="#F1F1F1"/>
</svg>
